<svg width="18" height="19" viewBox="0 0 18 19" fill="none" xmlns="http://www.w3.org/2000/svg">
<path fill-rule="evenodd" clip-rule="evenodd" d="M6.58572 5.51733C6.6381 5.57249 6.67966 5.63801 6.70802 5.71014C6.73638 5.78228 6.75097 5.85961 6.75097 5.93771C6.75097 6.01581 6.73638 6.09314 6.70802 6.16527C6.67966 6.23741 6.6381 6.30293 6.58572 6.35808L3.60784 9.50021L6.58572 12.6423C6.63802 12.6975 6.6795 12.7631 6.70781 12.8352C6.73611 12.9073 6.75068 12.9846 6.75068 13.0627C6.75068 13.1408 6.73611 13.2181 6.70781 13.2902C6.6795 13.3623 6.63802 13.4279 6.58572 13.4831C6.53342 13.5383 6.47133 13.5821 6.403 13.612C6.33467 13.6418 6.26143 13.6572 6.18747 13.6572C6.11351 13.6572 6.04027 13.6418 5.97194 13.612C5.9036 13.5821 5.84152 13.5383 5.78922 13.4831L2.41422 9.92058C2.36183 9.86543 2.32027 9.79991 2.29192 9.72777C2.26356 9.65564 2.24896 9.57831 2.24896 9.50021C2.24896 9.42211 2.26356 9.34478 2.29192 9.27264C2.32027 9.20051 2.36183 9.13499 2.41422 9.07983L5.78922 5.51733C5.84147 5.46204 5.90354 5.41817 5.97188 5.38824C6.04022 5.3583 6.11348 5.3429 6.18747 5.3429C6.26146 5.3429 6.33472 5.3583 6.40306 5.38824C6.47139 5.41817 6.53347 5.46204 6.58572 5.51733Z" fill="#56597A" fill-opacity="0.6"/>
<path fill-rule="evenodd" clip-rule="evenodd" d="M2.8125 9.50024C2.8125 9.34277 2.87176 9.19175 2.97725 9.0804C3.08274 8.96905 3.22582 8.90649 3.375 8.90649H15.1875C15.3367 8.90649 15.4798 8.96905 15.5852 9.0804C15.6907 9.19175 15.75 9.34277 15.75 9.50024C15.75 9.65772 15.6907 9.80874 15.5852 9.92009C15.4798 10.0314 15.3367 10.094 15.1875 10.094H3.375C3.22582 10.094 3.08274 10.0314 2.97725 9.92009C2.87176 9.80874 2.8125 9.65772 2.8125 9.50024Z" fill="#56597A" fill-opacity="0.6"/>
</svg>
