<svg width="25" height="25" viewBox="0 0 25 25" fill="none" xmlns="http://www.w3.org/2000/svg">
<path fill-rule="evenodd" clip-rule="evenodd" d="M15.8531 7.25955C15.9257 7.1868 16.0119 7.12907 16.1068 7.08969C16.2017 7.0503 16.3035 7.03003 16.4062 7.03003C16.509 7.03003 16.6108 7.0503 16.7057 7.08969C16.8006 7.12907 16.8868 7.1868 16.9594 7.25955L21.6469 11.9471C21.7196 12.0196 21.7773 12.1058 21.8167 12.2007C21.8561 12.2957 21.8764 12.3974 21.8764 12.5002C21.8764 12.6029 21.8561 12.7047 21.8167 12.7996C21.7773 12.8945 21.7196 12.9807 21.6469 13.0533L16.9594 17.7408C16.8127 17.8875 16.6137 17.9699 16.4062 17.9699C16.1988 17.9699 15.9998 17.8875 15.8531 17.7408C15.7064 17.5941 15.624 17.3951 15.624 17.1877C15.624 16.9802 15.7064 16.7812 15.8531 16.6346L19.9891 12.5002L15.8531 8.3658C15.7804 8.29323 15.7226 8.20702 15.6833 8.1121C15.6439 8.01719 15.6236 7.91544 15.6236 7.81268C15.6236 7.70991 15.6439 7.60816 15.6833 7.51325C15.7226 7.41833 15.7804 7.33212 15.8531 7.25955Z" fill="#F78CB6"/>
<path fill-rule="evenodd" clip-rule="evenodd" d="M3.125 12.5002C3.125 12.293 3.20731 12.0943 3.35382 11.9478C3.50034 11.8013 3.69905 11.719 3.90625 11.719H20.3125C20.5197 11.719 20.7184 11.8013 20.8649 11.9478C21.0114 12.0943 21.0938 12.293 21.0938 12.5002C21.0938 12.7074 21.0114 12.9062 20.8649 13.0527C20.7184 13.1992 20.5197 13.2815 20.3125 13.2815H3.90625C3.69905 13.2815 3.50034 13.1992 3.35382 13.0527C3.20731 12.9062 3.125 12.7074 3.125 12.5002Z" fill="#F78CB6"/>
</svg>
