<svg width="178" height="51" viewBox="0 0 178 51" fill="none" xmlns="http://www.w3.org/2000/svg">
<path d="M168.288 37.333C168.288 34.7652 170.405 32.6505 172.974 32.6505C175.544 32.6505 177.66 34.7652 177.66 37.333C177.66 39.9009 175.544 42.0156 172.974 42.0156C170.405 42.0911 168.288 39.9764 168.288 37.333Z" fill="#C1C1C1"/>
<path d="M18.3422 24.9471C18.3422 22.0016 17.7375 19.7359 16.6039 18.3009C15.4702 16.866 13.7318 16.1107 11.3889 16.1107H8.89497V34.3121H10.7844C13.3541 34.3121 15.319 33.5569 16.5282 31.9709C17.7375 30.4604 18.3422 28.1191 18.3422 24.9471ZM27.2602 24.645C27.2602 30.0828 25.8244 34.2366 22.8769 37.1821C19.9293 40.1275 15.8481 41.5625 10.5576 41.5625H0.278992V9.08691H11.2378C16.3015 9.08691 20.2316 10.4464 23.028 13.0898C25.8999 15.7331 27.2602 19.5849 27.2602 24.645Z" fill="#C1C1C1"/>
<path d="M55.6775 41.5625H63.8399V8.93591H55.6775V41.5625Z" fill="#C1C1C1"/>
<path d="M75.3279 29.4031C75.3279 31.5178 75.6302 33.1038 76.1593 34.1611C76.6883 35.2185 77.5952 35.8227 78.88 35.8227C80.1648 35.8227 81.0718 35.294 81.6008 34.1611C82.1299 33.1038 82.3566 31.5178 82.3566 29.4031C82.3566 27.3639 82.1299 25.7779 81.6008 24.7205C81.0718 23.6632 80.1648 23.1346 78.88 23.1346C77.5952 23.1346 76.7639 23.6632 76.1593 24.7205C75.6302 25.7024 75.3279 27.2884 75.3279 29.4031ZM90.6702 29.4031C90.6702 33.3304 89.612 36.4269 87.5714 38.6926C85.4552 40.8828 82.5834 42.0157 78.8045 42.0157C75.1768 42.0157 72.3804 40.8828 70.2642 38.6171C68.148 36.3513 67.09 33.2548 67.09 29.4031C67.09 25.4758 68.1479 22.3793 70.1885 20.1891C72.3047 17.9989 75.1767 16.9415 78.9556 16.9415C81.2985 16.9415 83.3391 17.4702 85.153 18.452C86.9668 19.4338 88.3272 20.9443 89.3097 22.8324C90.2167 24.645 90.6702 26.8352 90.6702 29.4031Z" fill="#C1C1C1"/>
<path d="M93.9199 41.5626H102.082V29.101V17.3192H93.9199V41.5626Z" fill="#C1C1C1"/>
<path d="M93.9199 14.3736H102.082V8.93591H93.9199V14.3736Z" fill="#C1C1C1"/>
<path d="M118.634 35.3695C119.767 35.3695 121.052 35.0674 122.564 34.5387V40.6562C121.43 41.1094 120.448 41.487 119.39 41.7135C118.407 41.9401 117.198 42.0157 115.913 42.0157C113.192 42.0157 111.227 41.3359 109.942 39.9765C108.733 38.617 108.128 36.5023 108.128 33.6324V23.6632H105.257V17.3191H108.128V11.1261L116.366 9.69116V17.3191H121.581V23.5876H116.366V33.0282C116.442 34.6142 117.198 35.3695 118.634 35.3695Z" fill="#C1C1C1"/>
<path d="M137.528 35.3695C138.662 35.3695 139.947 35.0674 141.458 34.5387V40.6562C140.325 41.1094 139.342 41.487 138.284 41.7135C137.302 41.9401 136.092 42.0157 134.808 42.0157C132.087 42.0157 130.122 41.3359 128.912 39.9765C127.703 38.617 127.099 36.5023 127.099 33.6324V23.6632H124.227V17.3191H127.099V11.0506L135.337 9.69116V17.3191H140.551V23.5876H135.337V33.0282C135.337 34.6142 136.092 35.3695 137.528 35.3695Z" fill="#C1C1C1"/>
<path d="M151.813 26.4575C151.888 25.0981 152.266 24.1918 152.946 23.5121C153.626 22.9079 154.382 22.6058 155.365 22.6058C156.423 22.6058 157.254 22.9835 157.859 23.6632C158.463 24.3429 158.841 25.3247 158.841 26.4575H151.813ZM163.376 19.7359C161.411 17.8478 158.69 16.866 155.138 16.866C151.359 16.866 148.487 17.9233 146.522 20.1135C144.481 22.3037 143.499 25.4758 143.499 29.5541C143.499 33.4814 144.557 36.5779 146.749 38.6925C148.941 40.8072 151.964 41.9401 155.969 41.9401C157.859 41.9401 159.521 41.789 160.882 41.5625C162.242 41.3359 163.527 40.8827 164.812 40.203L163.527 34.7653C162.62 35.1429 161.713 35.445 160.882 35.596C159.673 35.8981 158.388 36.0492 156.952 36.0492C155.365 36.0492 154.156 35.6716 153.249 34.9163C152.342 34.1611 151.888 33.1037 151.813 31.7443H166.399V28.0436C166.248 24.4184 165.265 21.624 163.376 19.7359Z" fill="#C1C1C1"/>
<path d="M38.1436 26.4575C38.2192 25.0981 38.5971 24.1918 39.2773 23.5121C39.9575 22.9079 40.7132 22.6058 41.6957 22.6058C42.7538 22.6058 43.5852 22.9835 44.1898 23.6632C44.7944 24.3429 45.0968 25.3247 45.1724 26.4575H38.1436ZM49.6314 19.7359C47.6664 17.8478 44.9456 16.866 41.3935 16.866C37.6146 16.866 34.7425 17.9233 32.7775 20.1135C30.8125 22.3037 29.7544 25.4758 29.7544 29.5541C29.7544 33.4814 30.8125 36.5779 33.0043 38.6925C35.196 40.8072 38.2192 41.9401 42.1493 41.9401C44.0387 41.9401 45.7014 41.789 47.0618 41.5625C48.4222 41.3359 49.707 40.8827 50.9918 40.203L49.707 34.7653C48.8001 35.1429 47.8932 35.445 47.0618 35.596C45.8526 35.8981 44.5676 36.0492 43.1316 36.0492C41.5445 36.0492 40.3353 35.6716 39.4284 34.9163C38.5215 34.1611 38.0681 33.1037 37.9925 31.7443H52.5788V28.0436C52.5788 24.4184 51.5964 21.624 49.6314 19.7359Z" fill="#C1C1C1"/>
</svg>
