<svg width="22" height="22" viewBox="0 0 22 22" fill="none" xmlns="http://www.w3.org/2000/svg">
<path d="M16.0448 0H5.95519C2.67144 0 0 2.67144 0 5.95519V16.0449C0 19.3285 2.67144 22 5.95519 22H16.0449C19.3285 22 22 19.3285 22 16.0449V5.95519C22 2.67144 19.3285 0 16.0448 0V0ZM20.7102 16.0449C20.7102 18.6174 18.6174 20.7102 16.0448 20.7102H5.95519C3.38261 20.7102 1.28973 18.6174 1.28973 16.0449V5.95519C1.28973 3.38261 3.38261 1.28973 5.95519 1.28973H16.0449C18.6174 1.28973 20.7102 3.38261 20.7102 5.95519V16.0449Z" fill="#A7A7A7"/>
<path d="M11 4.98438C7.68299 4.98438 4.98453 7.68284 4.98453 10.9998C4.98453 14.3168 7.68299 17.0153 11 17.0153C14.317 17.0153 17.0154 14.3168 17.0154 10.9998C17.0154 7.68284 14.317 4.98438 11 4.98438ZM11 15.7255C8.39433 15.7255 6.27426 13.6056 6.27426 10.9998C6.27426 8.39417 8.39433 6.27411 11 6.27411C13.6058 6.27411 15.7257 8.39417 15.7257 10.9998C15.7257 13.6056 13.6058 15.7255 11 15.7255Z" fill="#A7A7A7"/>
<path d="M17.1593 2.84814C16.179 2.84814 15.3818 3.64558 15.3818 4.62564C15.3818 5.60586 16.179 6.4033 17.1593 6.4033C18.1395 6.4033 18.9369 5.60586 18.9369 4.62564C18.9369 3.64541 18.1395 2.84814 17.1593 2.84814ZM17.1593 5.1134C16.8904 5.1134 16.6715 4.89453 16.6715 4.62564C16.6715 4.35658 16.8904 4.13788 17.1593 4.13788C17.4283 4.13788 17.6472 4.35658 17.6472 4.62564C17.6472 4.89453 17.4283 5.1134 17.1593 5.1134Z" fill="#A7A7A7"/>
</svg>
