<svg width="195" height="56" viewBox="0 0 195 56" fill="none" xmlns="http://www.w3.org/2000/svg">
<path d="M194.817 26.0163V22.583H190.567V17.2577L190.43 17.3035L186.438 18.5242L186.362 18.5547V22.583H180.055V20.34C180.055 19.2871 180.284 18.4937 180.756 17.9596C181.213 17.4256 181.868 17.1662 182.706 17.1662C183.3 17.1662 183.925 17.3035 184.549 17.5934L184.702 17.6697V14.0381L184.625 14.0076C184.047 13.7939 183.254 13.6871 182.264 13.6871C181.03 13.6871 179.903 13.9618 178.913 14.4959C177.922 15.0299 177.161 15.7929 176.612 16.7694C176.079 17.746 175.805 18.8599 175.805 20.1111V22.583H172.849V26.0163H175.805V40.4664H180.055V26.0163H186.362V35.2021C186.362 38.9863 188.145 40.8937 191.648 40.8937C192.227 40.8937 192.837 40.8326 193.446 40.6953C194.071 40.558 194.513 40.4206 194.756 40.2833L194.817 40.2528V36.7738L194.65 36.8958C194.421 37.0484 194.132 37.1705 193.797 37.2621C193.461 37.3536 193.172 37.3994 192.959 37.3994C192.136 37.3994 191.527 37.1705 191.146 36.7433C190.765 36.3008 190.567 35.5225 190.567 34.4544V26.0163H194.817ZM163.358 37.4146C161.82 37.4146 160.601 36.8958 159.748 35.8888C158.879 34.8817 158.453 33.4321 158.453 31.5858C158.453 29.6937 158.895 28.2136 159.748 27.176C160.601 26.1536 161.804 25.6348 163.328 25.6348C164.805 25.6348 165.979 26.1384 166.816 27.1149C167.654 28.1067 168.096 29.5716 168.096 31.4942C168.096 33.4321 167.7 34.9275 166.893 35.9193C166.085 36.9111 164.897 37.4146 163.358 37.4146ZM163.541 22.1558C160.601 22.1558 158.255 23.0256 156.594 24.7193C154.934 26.4283 154.08 28.7781 154.08 31.7231C154.08 34.5155 154.903 36.7738 156.533 38.4065C158.163 40.0544 160.372 40.8784 163.114 40.8784C165.963 40.8784 168.264 40.0087 169.924 38.2691C171.585 36.5449 172.438 34.2103 172.438 31.3264C172.438 28.4882 171.646 26.2147 170.077 24.582C168.507 22.9798 166.314 22.1558 163.541 22.1558ZM147.24 22.1558C145.245 22.1558 143.584 22.6746 142.32 23.6817C141.04 24.704 140.4 26.0315 140.4 27.649C140.4 28.4882 140.537 29.2359 140.811 29.8615C141.086 30.5024 141.512 31.0517 142.076 31.5247C142.639 31.9825 143.508 32.4708 144.666 32.9743C145.641 33.3711 146.357 33.7067 146.814 33.9814C147.255 34.2408 147.575 34.5002 147.758 34.7596C147.926 35.0037 148.017 35.3547 148.017 35.7667C148.017 36.9721 147.118 37.552 145.275 37.552C144.589 37.552 143.813 37.4146 142.959 37.1247C142.106 36.8501 141.314 36.4381 140.583 35.9193L140.4 35.7972V39.9018L140.461 39.9324C141.055 40.207 141.817 40.4512 142.716 40.6343C143.614 40.8174 144.422 40.9089 145.123 40.9089C147.301 40.9089 149.038 40.3901 150.318 39.383C151.597 38.3607 152.252 36.9874 152.252 35.3242C152.252 34.1187 151.902 33.0811 151.216 32.2572C150.531 31.4332 149.343 30.6702 147.682 29.9988C146.357 29.4648 145.519 29.0223 145.168 28.6866C144.833 28.3661 144.666 27.8931 144.666 27.3133C144.666 26.7945 144.879 26.3825 145.305 26.0468C145.747 25.7111 146.357 25.528 147.118 25.528C147.819 25.528 148.55 25.6348 149.266 25.8637C149.982 26.0773 150.622 26.3825 151.14 26.7335L151.308 26.8555V22.9645L151.247 22.934C150.759 22.7204 150.12 22.5525 149.343 22.3999C148.55 22.2321 147.85 22.1558 147.24 22.1558ZM129.325 37.4146C127.786 37.4146 126.567 36.8958 125.714 35.8888C124.846 34.8817 124.419 33.4321 124.419 31.5858C124.419 29.6937 124.861 28.2136 125.714 27.176C126.567 26.1536 127.771 25.6348 129.294 25.6348C130.772 25.6348 131.945 26.1384 132.783 27.1149C133.621 28.1067 134.063 29.5716 134.063 31.4942C134.063 33.4321 133.666 34.9275 132.859 35.9193C132.052 36.9111 130.879 37.4146 129.325 37.4146ZM129.507 22.1558C126.567 22.1558 124.221 23.0256 122.561 24.7193C120.9 26.4283 120.047 28.7934 120.047 31.7384C120.047 34.5307 120.87 36.789 122.5 38.4217C124.13 40.0697 126.339 40.8937 129.081 40.8937C131.93 40.8937 134.23 40.0239 135.891 38.2844C137.551 36.5602 138.404 34.2255 138.404 31.3416C138.404 28.5035 137.612 26.2299 136.043 24.5972C134.474 22.9798 132.28 22.1558 129.507 22.1558ZM113.603 25.6806V22.583H109.413V40.4512H113.603V31.3111C113.603 29.7547 113.953 28.473 114.654 27.5117C115.339 26.5656 116.254 26.0773 117.366 26.0773C117.746 26.0773 118.173 26.1384 118.63 26.2604C119.087 26.3825 119.407 26.5198 119.605 26.6572L119.788 26.7792V22.5373L119.727 22.5068C119.331 22.3389 118.782 22.2626 118.082 22.2626C117.03 22.2626 116.086 22.5983 115.279 23.2697C114.563 23.8648 114.06 24.6582 113.664 25.6653L113.603 25.6806ZM101.888 22.1558C99.968 22.1558 98.2465 22.5678 96.784 23.3918C95.3215 24.2157 94.1941 25.3754 93.4172 26.8555C92.6555 28.3356 92.2594 30.0599 92.2594 31.9978C92.2594 33.6915 92.6402 35.2326 93.3867 36.6059C94.1332 37.9792 95.1844 39.0473 96.525 39.7798C97.8656 40.5275 99.4043 40.8937 101.111 40.8937C103.106 40.8937 104.813 40.4969 106.168 39.7035L106.229 39.673V35.8277L106.046 35.9498C105.422 36.4076 104.736 36.7585 103.99 37.0179C103.243 37.2773 102.573 37.4146 101.979 37.4146C100.334 37.4146 99.0082 36.8958 98.0484 35.8735C97.0887 34.8512 96.6012 33.4168 96.6012 31.6163C96.6012 29.8005 97.1039 28.3356 98.1094 27.2523C99.1148 26.1689 100.44 25.6196 102.04 25.6196C103.426 25.6196 104.767 26.0926 106.031 27.0081L106.214 27.1302V23.0713L106.153 23.0408C105.681 22.7662 105.026 22.5525 104.218 22.3847C103.426 22.2473 102.634 22.1558 101.888 22.1558ZM89.3801 22.583H85.1906V40.4512H89.3801V22.583ZM87.3234 14.9841C86.6379 14.9841 86.0285 15.213 85.541 15.686C85.0383 16.1591 84.7945 16.7389 84.7945 17.4408C84.7945 18.1275 85.0383 18.7073 85.541 19.1651C86.0285 19.6228 86.6379 19.8517 87.3387 19.8517C88.0395 19.8517 88.6488 19.6228 89.1363 19.1651C89.6391 18.7073 89.8828 18.1275 89.8828 17.4408C89.8828 16.7694 89.6391 16.1896 89.1516 15.7013C88.6641 15.213 88.0395 14.9841 87.3234 14.9841ZM76.8422 21.2708V40.4664H81.123V15.5182H75.1969L67.6559 34.0424L60.3434 15.5182H54.1734V40.4512H58.1953V21.2708H58.3324L66.0562 40.4664H69.0879L76.6898 21.2708H76.8422Z" fill="#C1C1C1"/>
<path d="M19.9266 26.9624H0.182808V7.18689H19.9266V26.9624Z" fill="#C1C1C1"/>
<path d="M41.7269 26.9624H21.9832V7.18689H41.7269V26.9624Z" fill="#C1C1C1"/>
<path d="M19.9266 48.8131H0.182808V29.0376H19.9266V48.8131Z" fill="#C1C1C1"/>
<path d="M41.7269 48.8131H21.9832V29.0376H41.7269V48.8131Z" fill="#C1C1C1"/>
</svg>
