<svg width="25" height="26" viewBox="0 0 25 26" fill="none" xmlns="http://www.w3.org/2000/svg">
<g clip-path="url(#clip0_1_612)">
<path d="M25 5.22866C23.4274 5.30404 23.4617 5.29789 23.284 5.31337L24.2153 2.54718C24.2153 2.54718 21.3081 3.65941 20.5711 3.85836C18.6356 2.04908 15.7585 1.96914 13.7016 3.2839C12.0172 4.36082 11.1132 6.21017 11.4147 8.37175C8.13656 7.89865 5.37453 6.28257 3.19385 3.55824L2.50416 2.69674L1.98879 3.68103C1.33743 4.92477 1.12114 6.34684 1.37959 7.68521C1.48563 8.23428 1.66588 8.75796 1.91555 9.24832L1.32389 9.00988L1.2537 10.038C1.18256 11.0824 1.51691 12.3015 2.14825 13.2989C2.32601 13.5798 2.55489 13.8883 2.845 14.1925L2.53925 14.1438L2.91233 15.3218C3.40271 16.8697 4.42123 18.0672 5.74303 18.7329C4.42295 19.3155 3.35655 19.6872 1.6037 20.2869L0 20.8352L1.48125 21.6774C2.04601 21.9986 4.04167 23.0711 6.01349 23.3929C10.3966 24.1078 15.3315 23.5256 18.6537 20.4138C21.4519 17.7929 22.3701 14.0646 22.1794 10.1848C22.1506 9.59744 22.3053 9.03686 22.615 8.60661C23.2355 7.74511 24.9962 5.23442 25 5.22866ZM21.4437 7.69413C20.9293 8.40844 20.6716 9.32072 20.7178 10.2626C20.9103 14.1761 19.8864 17.2111 17.6744 19.2828C15.0906 21.703 10.9228 22.653 6.24027 21.8891C5.39226 21.7508 4.51584 21.4412 3.79047 21.1319C5.26009 20.6061 6.39496 20.1373 8.22773 19.2352L10.7862 17.9758L7.96146 17.7877C6.60839 17.6976 5.48172 17.0157 4.78916 15.9084C5.1569 15.8862 5.51147 15.8243 5.86452 15.7219L8.55865 14.9416L5.84202 14.2497C4.52194 13.9134 3.76949 13.092 3.37067 12.462C3.10879 12.048 2.9377 11.6239 2.83508 11.233C3.10745 11.3089 3.42503 11.3631 3.93715 11.4158L6.45161 11.6745L4.45938 10.0582C3.02391 8.89384 2.44865 7.14447 2.87037 5.46273C7.35035 10.2953 12.6104 9.93208 13.1399 10.0598C13.0234 8.88253 13.0203 8.87976 12.9898 8.76768C12.3117 6.27484 13.7978 5.00908 14.468 4.58061C15.868 3.68579 18.0902 3.5509 19.6295 5.02514C19.9619 5.34332 20.4115 5.46849 20.8322 5.35978C21.2099 5.26219 21.5198 5.15884 21.8233 5.04637L21.1916 6.9225L21.998 6.92309C21.8458 7.13534 21.6633 7.38945 21.4437 7.69413Z" fill="#A7A7A7"/>
</g>
<defs>
<clipPath id="clip0_1_612">
<rect width="25" height="26" fill="white"/>
</clipPath>
</defs>
</svg>
