<svg width="24" height="20" viewBox="0 0 24 20" fill="#A7A7A7" xmlns="http://www.w3.org/2000/svg">
<path d="M15.8883 9.40375L10.2633 5.88813C10.0465 5.75266 9.77329 5.74549 9.54974 5.86938C9.32615 5.99327 9.18744 6.22877 9.18744 6.48438V13.5156C9.18744 13.7712 9.32615 14.0067 9.54974 14.1306C9.65596 14.1895 9.77333 14.2188 9.89057 14.2188C10.0201 14.2188 10.1494 14.183 10.2632 14.1119L15.8882 10.5963C16.0938 10.4678 16.2187 10.2424 16.2187 10C16.2187 9.75757 16.0939 9.53224 15.8883 9.40375ZM10.5937 12.247V7.75296L14.189 10L10.5937 12.247Z" fill="#A7A7A7"/>
<path d="M20.4844 0.859375H3.51562C1.57711 0.859375 0 2.43648 0 4.375V15.625C0 17.5635 1.57711 19.1406 3.51562 19.1406H20.4844C22.4229 19.1406 24 17.5635 24 15.625V4.375C24 2.43648 22.4229 0.859375 20.4844 0.859375ZM22.5938 15.625C22.5938 16.7881 21.6475 17.7344 20.4844 17.7344H3.51562C2.35252 17.7344 1.40625 16.7881 1.40625 15.625V4.375C1.40625 3.21189 2.35252 2.26562 3.51562 2.26562H20.4844C21.6475 2.26562 22.5938 3.21189 22.5938 4.375V15.625Z" fill="#A7A7A7"/>
</svg>
